HIERARCHY
ROOT joint_Root
{
	OFFSET 0.0 0.0 0.0
	CHANNELS 6 Xposition Yposition Zposition Zrotation Xrotation Yrotation 
	JOINT Hips
	{
		OFFSET 4.5925 91.4895 -427.239
		CHANNELS 6 Xposition Yposition Zposition Zrotation Xrotation Yrotation 
		JOINT Spine
		{
			OFFSET 15.7357 0.0 0.0
			CHANNELS 6 Xposition Yposition Zposition Zrotation Xrotation Yrotation 
			JOINT Chest
			{
				OFFSET 8.98455 -0.406207 0.0
				CHANNELS 6 Xposition Yposition Zposition Zrotation Xrotation Yrotation 
				JOINT Neck
				{
					OFFSET 16.3773 0.0 0.0
					CHANNELS 6 Xposition Yposition Zposition Zrotation Xrotation Yrotation 
					JOINT Head
					{
						OFFSET 6.45672 0.0 0.0
						CHANNELS 6 Xposition Yposition Zposition Zrotation Xrotation Yrotation 
						End Site
						{
							OFFSET 0.0 0.0 0.0
						}
					}
				}
				JOINT Shoulder_L
				{
					OFFSET 12.9942 -0.242716 4.98039
					CHANNELS 6 Xposition Yposition Zposition Zrotation Xrotation Yrotation 
					JOINT UpperArm_L
					{
						OFFSET 5.34809 0.0 0.0
						CHANNELS 6 Xposition Yposition Zposition Zrotation Xrotation Yrotation 
						JOINT LowerArm_L
						{
							OFFSET 24.3286 1.87007e-05 0.0
							CHANNELS 6 Xposition Yposition Zposition Zrotation Xrotation Yrotation 
							JOINT Hand_L
							{
								OFFSET 22.2916 0.0 0.0
								CHANNELS 6 Xposition Yposition Zposition Zrotation Xrotation Yrotation 
								End Site
								{
									OFFSET 0.0 0.0 0.0
								}
							}
						}
					}
				}
				JOINT Shoulder_R
				{
					OFFSET 12.9945 -0.242716 -4.98039
					CHANNELS 6 Xposition Yposition Zposition Zrotation Xrotation Yrotation 
					JOINT UpperArm_R
					{
						OFFSET -5.34813 0.0 0.0
						CHANNELS 6 Xposition Yposition Zposition Zrotation Xrotation Yrotation 
						JOINT LowerArm_R
						{
							OFFSET -24.3289 0.000322201 0.0
							CHANNELS 6 Xposition Yposition Zposition Zrotation Xrotation Yrotation 
							JOINT Hand_R
							{
								OFFSET -22.2915 -0.000108084 0.0
								CHANNELS 6 Xposition Yposition Zposition Zrotation Xrotation Yrotation 
								End Site
								{
									OFFSET 0.0 0.0 0.0
								}
							}
						}
					}
				}
			}
		}
		JOINT UpperLeg_L
		{
			OFFSET -2.19248 -6.46944 0.0
			CHANNELS 6 Xposition Yposition Zposition Zrotation Xrotation Yrotation 
			JOINT LowerLeg_L
			{
				OFFSET 39.0811 0.0 -1.23785e-05
				CHANNELS 6 Xposition Yposition Zposition Zrotation Xrotation Yrotation 
				JOINT Foot_L
				{
					OFFSET 40.9854 0.0 -1.26872e-05
					CHANNELS 6 Xposition Yposition Zposition Zrotation Xrotation Yrotation 
					JOINT Toes_L
					{
						OFFSET 11.7543 0.0 0.0
						CHANNELS 6 Xposition Yposition Zposition Zrotation Xrotation Yrotation 
						End Site
						{
							OFFSET 0.0 0.0 0.0
						}
					}
				}
			}
		}
		JOINT UpperLeg_R
		{
			OFFSET -2.19251 6.46944 0.0
			CHANNELS 6 Xposition Yposition Zposition Zrotation Xrotation Yrotation 
			JOINT LowerLeg_R
			{
				OFFSET -39.0811 -0.00228153 -0.0401928
				CHANNELS 6 Xposition Yposition Zposition Zrotation Xrotation Yrotation 
				JOINT Foot_R
				{
					OFFSET -40.9854 0.0 0.0
					CHANNELS 6 Xposition Yposition Zposition Zrotation Xrotation Yrotation 
					JOINT Toes_R
					{
						OFFSET -11.7543 0.0 0.0
						CHANNELS 6 Xposition Yposition Zposition Zrotation Xrotation Yrotation 
						End Site
						{
							OFFSET 0.0 0.0 0.0
						}
					}
				}
			}
		}
	}
}
MOTION
Frames:	7
Frame Time:	0.0333333
0.000000 0.000000 0.000000 0.000000 0.000000 -0.000000 -0.889418 81.421600 -0.401325 88.092100 -4.676880 12.410500 15.735700 0.000005 -0.000001 86.876200 80.473200 -87.016400 8.984550 -0.406207 -0.000000 11.259400 -1.034510 -0.178454 16.377300 -0.000001 -0.000001 -4.757120 -3.649100 1.739740 6.456720 -0.000001 -0.000000 -5.292450 -2.993820 3.685670 12.994200 -0.242716 4.980390 -90.694700 2.466560 -74.265300 5.348090 -0.000007 -0.000001 -62.102200 41.641100 -17.939200 24.328600 0.000019 0.000005 7.936430 22.255600 -20.208600 22.291600 -0.000001 0.000005 4.232840 5.294820 0.182098 12.994500 -0.242716 -4.980390 88.993300 7.113900 -81.924100 -5.348130 -0.000001 -0.000004 -52.447000 48.898500 -21.063700 -24.328900 0.000322 -0.000009 3.546840 9.692550 -20.215900 -22.291500 -0.000108 -0.000004 -4.055850 5.195100 2.853340 -2.192480 -6.469440 -0.000000 -172.324000 -10.150500 -13.601100 39.081100 -0.000007 -0.000012 -0.713272 0.343881 64.262100 40.985400 -0.000006 -0.000013 -0.403947 2.744960 -87.758900 11.754300 -0.000000 0.000003 -0.000407 -0.003356 -16.701200 -2.192510 6.469440 -0.000001 178.568000 8.203930 166.147000 -39.081100 -0.002282 -0.040193 0.087636 -0.041067 64.070500 -40.985400 0.000008 0.000006 7.471160 2.796300 -87.354700 -11.754300 -0.000006 -0.000006 -0.606336 -0.744378 -17.192200
0.000000 0.000000 0.000000 0.000000 0.000000 -0.000000 -0.919506 82.950500 0.018593 88.469900 -4.312470 12.666500 15.735700 0.000005 -0.000001 87.750500 81.044100 -88.032400 8.984550 -0.406207 -0.000000 10.130800 -0.704336 -0.500910 16.377300 -0.000001 -0.000001 -3.194160 -3.538410 1.733790 6.456720 -0.000001 -0.000000 -4.205210 -3.023460 3.170060 12.994200 -0.242716 4.980390 -90.488300 1.682960 -73.811900 5.348090 -0.000007 -0.000001 -53.697800 39.294500 -26.814900 24.328600 0.000019 0.000005 9.095180 23.571100 -21.818800 22.291600 -0.000001 0.000005 -0.590717 5.319570 -0.480204 12.994500 -0.242716 -4.980390 89.178300 5.628690 -81.678800 -5.348130 -0.000001 -0.000004 -44.773700 49.837600 -29.628700 -24.328900 0.000322 -0.000009 3.189990 7.813610 -22.310600 -22.291500 -0.000108 -0.000004 -12.448600 5.138090 4.248140 -2.192480 -6.469440 -0.000000 -172.767000 -9.847100 -10.925200 39.081100 -0.000007 -0.000012 -0.646765 0.376481 59.797900 40.985400 -0.000006 -0.000013 -0.499808 2.761600 -85.782100 11.754300 -0.000000 0.000003 -0.000378 -0.003152 -16.694000 -2.192510 6.469440 -0.000001 177.834000 8.977990 168.817000 -39.081100 -0.002282 -0.040193 0.081264 -0.045284 59.881900 -40.985400 0.000008 0.000006 7.579060 3.621210 -85.488400 -11.754300 -0.000006 -0.000006 -0.586103 -0.719052 -17.367500
0.000000 0.000000 0.000000 0.000000 0.000000 -0.000000 -0.945414 85.203800 0.483975 88.861200 -4.066610 12.954700 15.735700 0.000005 -0.000001 89.097500 81.962600 -89.514700 8.984550 -0.406207 -0.000000 8.306080 -0.254008 -0.815208 16.377300 -0.000001 -0.000001 0.392967 -3.502190 1.684830 6.456720 -0.000001 -0.000000 -2.477490 -3.384820 2.755080 12.994200 -0.242716 4.980390 -90.051400 0.170177 -73.170400 5.348090 -0.000007 -0.000001 -47.162300 29.771000 -35.814200 24.328600 0.000019 0.000005 8.938190 20.831300 -23.859300 22.291600 -0.000001 0.000005 -0.449673 5.287340 0.418197 12.994500 -0.242716 -4.980390 89.389400 3.779840 -80.812600 -5.348130 -0.000001 -0.000004 -36.210500 44.260000 -39.223800 -24.328900 0.000322 -0.000009 2.513140 5.178760 -25.946400 -22.291500 -0.000108 -0.000004 -12.858600 5.140960 4.167470 -2.192480 -6.469440 -0.000000 -173.200000 -9.696110 -6.870200 39.081100 -0.000007 -0.000012 -0.536421 0.408640 52.701500 40.985400 -0.000006 -0.000013 -0.637921 2.814980 -82.501100 11.754300 -0.000000 0.000003 -0.000309 -0.002666 -16.676800 -2.192510 6.469440 -0.000001 176.778000 10.467800 172.753000 -39.081100 -0.002282 -0.040193 0.067577 -0.048073 53.235100 -40.985400 0.000008 0.000006 7.787420 5.536150 -82.248000 -11.754300 -0.000006 -0.000006 -0.667563 -0.816624 -17.656100
0.000000 0.000000 0.000000 0.000000 0.000000 -0.000000 -0.999337 87.393800 0.610989 89.140800 -4.148080 11.686700 15.735700 0.000005 -0.000001 90.609700 83.450400 -91.069600 8.984550 -0.406207 -0.000000 5.333220 0.148836 -0.925661 16.377300 -0.000001 -0.000001 4.556420 -3.606460 1.670120 6.456720 -0.000001 -0.000000 -0.099599 -3.597940 2.139400 12.994200 -0.242716 4.980390 -89.458600 -1.733410 -72.658300 5.348090 -0.000007 -0.000001 -43.205800 16.530000 -44.682900 24.328600 0.000019 0.000005 9.657380 19.366100 -27.167000 22.291600 -0.000001 0.000005 3.156850 5.241910 1.632320 12.994500 -0.242716 -4.980390 89.710600 1.621450 -79.875100 -5.348130 -0.000001 -0.000004 -29.497400 32.456300 -47.927500 -24.328900 0.000322 -0.000009 3.616790 6.196110 -30.343800 -22.291500 -0.000108 -0.000004 -6.864430 5.170310 3.454720 -2.192480 -6.469440 -0.000000 -173.635000 -10.279000 -4.330690 39.081100 -0.000007 -0.000012 -0.411846 0.411003 45.059700 40.985400 -0.000006 -0.000013 -0.712574 3.093330 -78.663800 11.754300 -0.000000 0.000003 -0.000222 -0.002024 -16.653700 -2.192510 6.469440 -0.000001 176.217000 12.062500 175.040000 -39.081100 -0.002282 -0.040193 0.053517 -0.048346 46.109600 -40.985400 0.000008 0.000006 7.973300 7.776350 -78.498300 -11.754300 -0.000006 -0.000006 -0.644181 -0.786500 -18.015200
0.000000 0.000000 0.000000 0.000000 0.000000 -0.000000 -1.019180 89.011700 0.426130 89.080000 -4.252160 9.793100 15.735700 0.000005 -0.000001 90.667200 84.785400 -91.037800 8.984550 -0.406207 -0.000000 2.662970 0.137842 -0.743715 16.377300 -0.000001 -0.000001 6.984700 -3.563430 1.713260 6.456720 -0.000001 -0.000000 1.883540 -3.591320 1.373180 12.994200 -0.242716 4.980390 -88.669500 -4.120130 -72.086500 5.348090 -0.000007 -0.000001 -40.422800 2.008540 -53.100800 24.328600 0.000019 0.000005 11.204600 17.646600 -33.166100 22.291600 -0.000001 0.000005 8.476850 5.230610 1.944830 12.994500 -0.242716 -4.980390 90.082300 -0.431367 -79.234300 -5.348130 -0.000001 -0.000004 -27.441700 15.222200 -54.144900 -24.328900 0.000322 -0.000009 7.476690 9.921730 -37.281800 -22.291500 -0.000108 -0.000004 4.258540 5.182480 3.211320 -2.192480 -6.469440 -0.000000 -173.910000 -10.788500 -3.300600 39.081100 -0.000007 -0.000012 -0.326108 0.405652 38.796900 40.985400 -0.000006 -0.000013 -0.791593 3.278170 -75.324000 11.754300 -0.000000 0.000003 -0.000145 -0.001414 -16.631300 -2.192510 6.469440 -0.000001 176.336000 13.493400 175.997000 -39.081100 -0.002282 -0.040193 0.042573 -0.046808 40.012800 -40.985400 0.000008 0.000006 7.961910 9.696600 -75.284900 -11.754300 -0.000006 -0.000006 -0.432525 -0.536717 -18.272700
0.000000 0.000000 0.000000 0.000000 0.000000 -0.000000 -0.979586 90.035200 0.148058 88.842500 -4.177440 7.652490 15.735700 0.000005 -0.000001 90.658400 85.653800 -90.893500 8.984550 -0.406207 -0.000000 0.926124 0.113868 -0.470645 16.377300 -0.000001 -0.000001 6.896660 -3.579050 1.768150 6.456720 -0.000001 -0.000000 2.635250 -3.453800 1.155120 12.994200 -0.242716 4.980390 -87.853700 -6.479710 -71.629900 5.348090 -0.000007 -0.000001 -39.459000 -13.952300 -60.627800 24.328600 0.000019 0.000005 12.043500 14.049500 -41.318300 22.291600 -0.000001 0.000005 15.210800 5.246640 1.525250 12.994500 -0.242716 -4.980390 90.552500 -2.735820 -78.582600 -5.348130 -0.000001 -0.000004 -31.102400 -4.860820 -59.221300 -24.328900 0.000322 -0.000009 8.264090 7.907010 -46.615700 -22.291500 -0.000108 -0.000004 18.491300 5.356220 -1.269630 -2.192480 -6.469440 -0.000000 -174.354000 -10.260400 -3.638070 39.081100 -0.000007 -0.000012 -0.273080 0.397159 34.512300 40.985400 -0.000006 -0.000013 -1.038850 2.651120 -72.921900 11.754300 -0.000000 0.000003 -0.000124 -0.001235 -16.624700 -2.192510 6.469440 -0.000001 176.778000 15.063800 175.990000 -39.081100 -0.002282 -0.040193 0.034458 -0.043914 35.365800 -40.985400 0.000008 0.000006 7.938570 11.397000 -73.175600 -11.754300 -0.000006 -0.000006 -0.219211 -0.287457 -18.130800
0.000000 0.000000 0.000000 0.000000 0.000000 -0.000000 -0.963416 90.672400 -0.193901 88.562800 -3.715440 5.566170 15.735700 0.000005 -0.000001 91.016000 86.117700 -91.129800 8.984550 -0.406207 -0.000000 -0.002504 0.145360 -0.227394 16.377300 -0.000001 -0.000001 5.023100 -3.689280 1.711970 6.456720 -0.000001 -0.000000 2.267270 -3.526440 1.536540 12.994200 -0.242716 4.980390 -87.105300 -8.260470 -70.612400 5.348090 -0.000007 -0.000001 -42.279300 -29.958200 -69.556800 24.328600 0.000019 0.000005 13.219700 11.686600 -49.229600 22.291600 -0.000001 0.000005 23.526100 5.254190 1.332640 12.994500 -0.242716 -4.980390 91.108000 -4.959530 -77.394500 -5.348130 -0.000001 -0.000004 -41.078800 -24.337000 -67.974000 -24.328900 0.000322 -0.000009 2.443570 1.610990 -56.695300 -22.291500 -0.000108 -0.000004 25.030000 5.486980 -5.983360 -2.192480 -6.469440 -0.000000 -174.738000 -9.087100 -4.789470 39.081100 -0.000007 -0.000012 -0.243987 0.394110 31.761400 40.985400 -0.000006 -0.000013 -1.288840 1.848730 -71.218400 11.754300 -0.000000 0.000003 -0.000130 -0.001284 -16.626500 -2.192510 6.469440 -0.000001 177.492000 16.373600 175.388000 -39.081100 -0.002282 -0.040193 0.030135 -0.042973 31.985600 -40.985400 0.000008 0.000006 7.932730 12.348200 -71.760000 -11.754300 -0.000006 -0.000006 -0.018212 -0.050888 -17.896000
